<?xml version="1.0" encoding="UTF-8"?>
<svg width="18px" height="18px" viewBox="0 0 18 18" version="1.1" xmlns="http://www.w3.org/2000/svg" xmlns:xlink="http://www.w3.org/1999/xlink">
    <!-- Generator: Sketch 61 (89581) - https://sketch.com -->
    <title>画板</title>
    <desc>Created with Sketch.</desc>
    <g id="画板" stroke="none" stroke-width="1" fill="none" fill-rule="evenodd" fill-opacity="0.3">
        <g id="3.Icons/Outlined/help" fill="#000000">
            <g id="Icons/Tint-Color/Black" transform="translate(1.500000, 1.500000)">
                <path d="M7.5,0 C11.6421356,0 15,3.35786438 15,7.5 C15,11.6421356 11.6421356,15 7.5,15 C3.35786438,15 0,11.6421356 0,7.5 C0,3.35786438 3.35786438,0 7.5,0 Z M7.5,0.9 C3.85492065,0.9 0.9,3.85492065 0.9,7.5 C0.9,11.1450793 3.85492065,14.1 7.5,14.1 C11.1450793,14.1 14.1,11.1450793 14.1,7.5 C14.1,3.85492065 11.1450793,0.9 7.5,0.9 Z M7.34825581,10.2174419 C7.68837209,10.2174419 7.94476744,10.4738372 7.94476744,10.8139535 C7.94476744,11.1488372 7.68837209,11.4104651 7.34825581,11.4104651 C7.01337209,11.4104651 6.75174419,11.1488372 6.75174419,10.8139535 C6.75174419,10.4738372 7.01337209,10.2174419 7.34825581,10.2174419 Z M7.53139535,3.75 C8.85,3.75 9.75,4.56627907 9.75,5.64418605 C9.75,6.46569767 9.32616279,7.04651163 8.65639535,7.4494186 C7.99186047,7.84186047 7.80348837,8.13488372 7.80348837,8.68430233 L7.80348837,8.68430233 L7.80348837,9.0244186 L6.8877907,9.0244186 L6.8877907,8.54302326 C6.88255814,7.85232558 7.21744186,7.38139535 7.93430233,6.95232558 C8.54127907,6.58081395 8.77674419,6.25116279 8.77674419,5.69127907 C8.77674419,5.04244186 8.2744186,4.56627907 7.49476744,4.56627907 C6.70465116,4.56627907 6.20232558,5.03197674 6.14476744,5.78023256 L6.14476744,5.78023256 L5.25,5.78023256 C5.30755814,4.65 6.06104651,3.75 7.53139535,3.75 Z" id="图标颜色"></path>
            </g>
        </g>
    </g>
</svg>